<?xml version="1.0" encoding="UTF-8"?>
<svg id="Layer_1" data-name="Layer 1" xmlns="http://www.w3.org/2000/svg" viewBox="0 0 48 48">
  <defs>
    <style>
      .cls-1 {
        fill: #231f20;
        stroke: #231f20;
        stroke-width: .5px;
      }

      .cls-1, .cls-2, .cls-3 {
        stroke-miterlimit: 10;
      }

      .cls-2 {
        fill: #fff;
      }

      .cls-2, .cls-3 {
        stroke: #fff;
      }

      .cls-3 {
        fill: none;
        stroke-width: 2px;
      }
    </style>
  </defs>
  <path class="cls-3" d="M13.79,22.03c.26-.17,7.97-5.14,10.7-6.83,2.68.61,7.32,1.84,9.68,2.55-.54.39-8.34,5.63-11.2,7.53-.47.05-7.07-2.51-9.18-3.24v-.02Z"/>
  <path class="cls-3" d="M13.8,22.03c.02,1.73-.04,5.75.02,7.35,2.59,1.02,6.5,2.5,9.19,3.42.39-.28,10.76-7.89,11.14-8.19.1-1.82,0-5.9.04-6.86"/>
  <path class="cls-2" d="M24,15.27c-6.49-3.58-11.69,0-11.69,0v19.19c3-2.26,8.11-1.85,11.69,0,3-2.26,8.11-1.85,11.69,0V15.27c-6.49-3.58-11.69,0-11.69,0Z"/>
  <line class="cls-1" x1="24" y1="15.2" x2="24" y2="34.46"/>
</svg>